<svg width="56" height="37" viewBox="0 0 56 37" fill="none" xmlns="http://www.w3.org/2000/svg">
<g clip-path="url(#clip0_6_145)">
<rect width="56" height="37" rx="18.5" fill="url(#paint0_linear_6_145)"/>
<rect width="56" height="37" fill="#6C584A"/>
<path d="M18.8834 19.0088L23.402 20.7383V22.3584L17.6393 19.8154V18.7422L18.8834 19.0088ZM23.402 17.5938L18.8834 19.3506L17.6393 19.5898V18.5166L23.402 15.9805V17.5938ZM26.1064 19.0088L30.625 20.7383V22.3584L24.8623 19.8154V18.7422L26.1064 19.0088ZM30.625 17.5938L26.1064 19.3506L24.8623 19.5898V18.5166L30.625 15.9805V17.5938ZM33.3295 19.0088L37.848 20.7383V22.3584L32.0854 19.8154V18.7422L33.3295 19.0088ZM37.848 17.5938L33.3295 19.3506L32.0854 19.5898V18.5166L37.848 15.9805V17.5938Z" fill="white"/>
</g>
<defs>
<linearGradient id="paint0_linear_6_145" x1="28" y1="0" x2="28" y2="37" gradientUnits="userSpaceOnUse">
<stop offset="1" stop-color="#6E5B4F"/>
</linearGradient>
<clipPath id="clip0_6_145">
<rect width="56" height="37" rx="18.5" fill="white"/>
</clipPath>
</defs>
</svg>
